<svg width="16" height="16" viewBox="0 0 16 16" fill="none" xmlns="http://www.w3.org/2000/svg">
<path d="M1 9C1 8.44772 1.44772 8 2 8H6C6.55228 8 7 8.44772 7 9V13C7 13.5523 6.55228 14 6 14H2C1.44772 14 1 13.5523 1 13V9Z" fill="#FAF5FF"/>
<path d="M9 1C8.44772 1 8 1.44772 8 2V6C8 6.55228 8.44772 7 9 7H13C13.5523 7 14 6.55228 14 6V2C14 1.44772 13.5523 1 13 1H9Z" fill="#FAF5FF"/>
<path d="M1 2C1 1.44772 1.44772 1 2 1H6C6.55228 1 7 1.44772 7 2V6C7 6.55228 6.55228 7 6 7H2C1.44772 7 1 6.55228 1 6V2Z" fill="#EDF3FF"/>
<path d="M8 9C8 8.44772 8.44772 8 9 8H13C13.5523 8 14 8.44772 14 9V13C14 13.5523 13.5523 14 13 14H9C8.44772 14 8 13.5523 8 13V9Z" fill="#EDF3FF"/>
<path fill-rule="evenodd" clip-rule="evenodd" d="M2 8C1.44772 8 1 8.44772 1 9V13C1 13.5523 1.44772 14 2 14H6C6.55228 14 7 13.5523 7 13V9C7 8.44772 6.55228 8 6 8H2ZM6 9H2V13H6V9Z" fill="#834DF0"/>
<path fill-rule="evenodd" clip-rule="evenodd" d="M8 2C8 1.44772 8.44772 1 9 1H13C13.5523 1 14 1.44772 14 2V6C14 6.55228 13.5523 7 13 7H9C8.44772 7 8 6.55228 8 6V2ZM9 2H13V6H9V2Z" fill="#834DF0"/>
<path fill-rule="evenodd" clip-rule="evenodd" d="M2 1C1.44772 1 1 1.44772 1 2V6C1 6.55228 1.44772 7 2 7H6C6.55228 7 7 6.55228 7 6V2C7 1.44772 6.55228 1 6 1H2ZM6 2H2V6H6V2Z" fill="#3574F0"/>
<path fill-rule="evenodd" clip-rule="evenodd" d="M9 8C8.44772 8 8 8.44772 8 9V13C8 13.5523 8.44772 14 9 14H13C13.5523 14 14 13.5523 14 13V9C14 8.44772 13.5523 8 13 8H9ZM13 9H9V13H13V9Z" fill="#3574F0"/>
</svg>
